<mxfile host="Electron" modified="2024-02-05T20:17:30.042Z" agent="Mozilla/5.0 (Windows NT 10.0; Win64; x64) AppleWebKit/537.36 (KHTML, like Gecko) draw.io/22.1.2 Chrome/114.0.5735.289 Electron/25.9.4 Safari/537.36" etag="loM8eoXfHoPHV2Lg1BAW" version="22.1.2" type="device">
  <diagram name="Страница — 1" id="eVEsZcw3MUEaS9acljYa">
    <mxGraphModel dx="2580" dy="1523" grid="1" gridSize="10" guides="1" tooltips="1" connect="1" arrows="1" fold="1" page="1" pageScale="1" pageWidth="827" pageHeight="1169" math="0" shadow="0">
      <root>
        <mxCell id="0" />
        <mxCell id="1" parent="0" />
        <mxCell id="zHHLwWhvpyaCA2TflrLo-2" style="edgeStyle=orthogonalEdgeStyle;rounded=0;orthogonalLoop=1;jettySize=auto;html=1;exitX=0.5;exitY=1;exitDx=0;exitDy=0;fontFamily=Times New Roman;fontSize=24;fontColor=default;" parent="1" source="zHHLwWhvpyaCA2TflrLo-1" target="zHHLwWhvpyaCA2TflrLo-3" edge="1">
          <mxGeometry relative="1" as="geometry">
            <mxPoint x="400" y="440" as="targetPoint" />
          </mxGeometry>
        </mxCell>
        <mxCell id="zHHLwWhvpyaCA2TflrLo-1" value="&lt;font style=&quot;font-size: 24px;&quot;&gt;Начало&lt;/font&gt;" style="ellipse;whiteSpace=wrap;html=1;fontFamily=Times New Roman;fontSize=24;" parent="1" vertex="1">
          <mxGeometry x="340" y="320" width="120" height="80" as="geometry" />
        </mxCell>
        <mxCell id="zHHLwWhvpyaCA2TflrLo-4" style="edgeStyle=orthogonalEdgeStyle;rounded=0;orthogonalLoop=1;jettySize=auto;html=1;fontFamily=Times New Roman;fontSize=24;fontColor=default;" parent="1" source="zHHLwWhvpyaCA2TflrLo-3" edge="1">
          <mxGeometry relative="1" as="geometry">
            <mxPoint x="400" y="560" as="targetPoint" />
          </mxGeometry>
        </mxCell>
        <mxCell id="zHHLwWhvpyaCA2TflrLo-3" value="using namespace std;" style="shape=parallelogram;perimeter=parallelogramPerimeter;whiteSpace=wrap;html=1;fixedSize=1;strokeColor=default;align=center;verticalAlign=middle;fontFamily=Times New Roman;fontSize=24;fontColor=default;fillColor=default;" parent="1" vertex="1">
          <mxGeometry x="277.5" y="450" width="245" height="60" as="geometry" />
        </mxCell>
        <mxCell id="zHHLwWhvpyaCA2TflrLo-17" style="edgeStyle=orthogonalEdgeStyle;rounded=0;orthogonalLoop=1;jettySize=auto;html=1;exitX=0.5;exitY=1;exitDx=0;exitDy=0;fontFamily=Times New Roman;fontSize=24;fontColor=default;" parent="1" source="zHHLwWhvpyaCA2TflrLo-5" edge="1">
          <mxGeometry relative="1" as="geometry">
            <mxPoint x="400" y="680" as="targetPoint" />
          </mxGeometry>
        </mxCell>
        <mxCell id="zHHLwWhvpyaCA2TflrLo-5" value="int main(){" style="shape=parallelogram;perimeter=parallelogramPerimeter;whiteSpace=wrap;html=1;fixedSize=1;strokeColor=default;align=center;verticalAlign=middle;fontFamily=Times New Roman;fontSize=24;fontColor=default;fillColor=default;" parent="1" vertex="1">
          <mxGeometry x="285" y="560" width="230" height="60" as="geometry" />
        </mxCell>
        <mxCell id="zHHLwWhvpyaCA2TflrLo-6" value="" style="endArrow=none;html=1;rounded=0;fontFamily=Times New Roman;fontSize=24;fontColor=default;" parent="1" edge="1">
          <mxGeometry width="50" height="50" relative="1" as="geometry">
            <mxPoint x="400" y="530" as="sourcePoint" />
            <mxPoint x="560" y="530" as="targetPoint" />
          </mxGeometry>
        </mxCell>
        <mxCell id="zHHLwWhvpyaCA2TflrLo-7" value="" style="endArrow=none;html=1;rounded=0;fontFamily=Times New Roman;fontSize=24;fontColor=default;" parent="1" edge="1">
          <mxGeometry width="50" height="50" relative="1" as="geometry">
            <mxPoint x="560" y="600" as="sourcePoint" />
            <mxPoint x="560" y="410" as="targetPoint" />
          </mxGeometry>
        </mxCell>
        <mxCell id="zHHLwWhvpyaCA2TflrLo-8" value="" style="endArrow=none;html=1;rounded=0;fontFamily=Times New Roman;fontSize=24;fontColor=default;" parent="1" edge="1">
          <mxGeometry width="50" height="50" relative="1" as="geometry">
            <mxPoint x="560" y="410" as="sourcePoint" />
            <mxPoint x="580" y="410" as="targetPoint" />
          </mxGeometry>
        </mxCell>
        <mxCell id="zHHLwWhvpyaCA2TflrLo-9" value="" style="endArrow=none;html=1;rounded=0;fontFamily=Times New Roman;fontSize=24;fontColor=default;" parent="1" edge="1">
          <mxGeometry width="50" height="50" relative="1" as="geometry">
            <mxPoint x="560" y="600" as="sourcePoint" />
            <mxPoint x="580" y="600" as="targetPoint" />
          </mxGeometry>
        </mxCell>
        <mxCell id="zHHLwWhvpyaCA2TflrLo-10" value="#include &amp;lt;iostream&amp;gt;;" style="text;html=1;align=center;verticalAlign=middle;resizable=0;points=[];autosize=1;strokeColor=none;fillColor=none;fontSize=24;fontFamily=Times New Roman;fontColor=default;" parent="1" vertex="1">
          <mxGeometry x="560" y="440" width="230" height="40" as="geometry" />
        </mxCell>
        <mxCell id="zHHLwWhvpyaCA2TflrLo-11" value="#include &amp;lt;stdio.h&amp;gt;;" style="text;html=1;align=center;verticalAlign=middle;resizable=0;points=[];autosize=1;strokeColor=none;fillColor=none;fontSize=24;fontFamily=Times New Roman;fontColor=default;" parent="1" vertex="1">
          <mxGeometry x="560" y="470" width="210" height="40" as="geometry" />
        </mxCell>
        <mxCell id="zHHLwWhvpyaCA2TflrLo-12" value="srand(time(NULL));" style="text;html=1;align=center;verticalAlign=middle;resizable=0;points=[];autosize=1;strokeColor=none;fillColor=none;fontSize=24;fontFamily=Times New Roman;fontColor=default;" parent="1" vertex="1">
          <mxGeometry x="560" y="500" width="220" height="40" as="geometry" />
        </mxCell>
        <mxCell id="zHHLwWhvpyaCA2TflrLo-13" value="const int n = 5, k = 4;" style="text;html=1;align=center;verticalAlign=middle;resizable=0;points=[];autosize=1;strokeColor=none;fillColor=none;fontSize=24;fontFamily=Times New Roman;fontColor=default;" parent="1" vertex="1">
          <mxGeometry x="560" y="530" width="230" height="40" as="geometry" />
        </mxCell>
        <mxCell id="zHHLwWhvpyaCA2TflrLo-14" value="int a[n], temp;" style="text;html=1;align=center;verticalAlign=middle;resizable=0;points=[];autosize=1;strokeColor=none;fillColor=none;fontSize=24;fontFamily=Times New Roman;fontColor=default;" parent="1" vertex="1">
          <mxGeometry x="560" y="560" width="160" height="40" as="geometry" />
        </mxCell>
        <mxCell id="zHHLwWhvpyaCA2TflrLo-16" value="setlocale(LC_ALL, &quot;Ru&quot;);" style="text;html=1;align=center;verticalAlign=middle;resizable=0;points=[];autosize=1;strokeColor=none;fillColor=none;fontSize=24;fontFamily=Times New Roman;fontColor=default;" parent="1" vertex="1">
          <mxGeometry x="560" y="410" width="280" height="40" as="geometry" />
        </mxCell>
        <mxCell id="zHHLwWhvpyaCA2TflrLo-19" style="edgeStyle=orthogonalEdgeStyle;rounded=0;orthogonalLoop=1;jettySize=auto;html=1;exitX=0.5;exitY=1;exitDx=0;exitDy=0;fontFamily=Times New Roman;fontSize=24;fontColor=default;" parent="1" source="zHHLwWhvpyaCA2TflrLo-18" edge="1">
          <mxGeometry relative="1" as="geometry">
            <mxPoint x="400" y="840" as="targetPoint" />
          </mxGeometry>
        </mxCell>
        <mxCell id="zHHLwWhvpyaCA2TflrLo-23" style="edgeStyle=orthogonalEdgeStyle;rounded=0;orthogonalLoop=1;jettySize=auto;html=1;exitX=1;exitY=0.5;exitDx=0;exitDy=0;fontFamily=Times New Roman;fontSize=24;fontColor=default;" parent="1" edge="1">
          <mxGeometry relative="1" as="geometry">
            <mxPoint x="800" y="840" as="targetPoint" />
            <mxPoint x="379.9999999999998" y="720" as="sourcePoint" />
            <Array as="points">
              <mxPoint x="801" y="720" />
              <mxPoint x="801" y="840" />
            </Array>
          </mxGeometry>
        </mxCell>
        <mxCell id="zHHLwWhvpyaCA2TflrLo-18" value="for (int i = 0; i &amp;lt; n; i ++){" style="shape=hexagon;perimeter=hexagonPerimeter2;whiteSpace=wrap;html=1;fixedSize=1;strokeColor=default;align=center;verticalAlign=middle;fontFamily=Times New Roman;fontSize=24;fontColor=default;fillColor=default;" parent="1" vertex="1">
          <mxGeometry x="260" y="680" width="280" height="80" as="geometry" />
        </mxCell>
        <mxCell id="zHHLwWhvpyaCA2TflrLo-20" value="True" style="text;html=1;align=center;verticalAlign=middle;resizable=0;points=[];autosize=1;strokeColor=none;fillColor=none;fontSize=24;fontFamily=Times New Roman;fontColor=default;" parent="1" vertex="1">
          <mxGeometry x="400" y="780" width="70" height="40" as="geometry" />
        </mxCell>
        <mxCell id="zHHLwWhvpyaCA2TflrLo-22" style="edgeStyle=orthogonalEdgeStyle;rounded=0;orthogonalLoop=1;jettySize=auto;html=1;exitX=0.5;exitY=1;exitDx=0;exitDy=0;entryX=0;entryY=0.5;entryDx=0;entryDy=0;fontFamily=Times New Roman;fontSize=24;fontColor=default;" parent="1" source="zHHLwWhvpyaCA2TflrLo-21" target="zHHLwWhvpyaCA2TflrLo-18" edge="1">
          <mxGeometry relative="1" as="geometry">
            <Array as="points">
              <mxPoint x="400" y="920" />
              <mxPoint x="200" y="920" />
              <mxPoint x="200" y="720" />
            </Array>
          </mxGeometry>
        </mxCell>
        <mxCell id="zHHLwWhvpyaCA2TflrLo-21" value="a[i] = rand() % 100 + 1;" style="rounded=0;whiteSpace=wrap;html=1;strokeColor=default;align=center;verticalAlign=middle;fontFamily=Times New Roman;fontSize=24;fontColor=default;fillColor=default;" parent="1" vertex="1">
          <mxGeometry x="275" y="840" width="250" height="50" as="geometry" />
        </mxCell>
        <mxCell id="zHHLwWhvpyaCA2TflrLo-24" value="False" style="text;html=1;align=center;verticalAlign=middle;resizable=0;points=[];autosize=1;strokeColor=none;fillColor=none;fontSize=24;fontFamily=Times New Roman;fontColor=default;" parent="1" vertex="1">
          <mxGeometry x="590" y="670" width="70" height="40" as="geometry" />
        </mxCell>
        <mxCell id="zHHLwWhvpyaCA2TflrLo-27" value="" style="edgeStyle=orthogonalEdgeStyle;rounded=0;orthogonalLoop=1;jettySize=auto;html=1;fontFamily=Times New Roman;fontSize=24;fontColor=default;" parent="1" source="zHHLwWhvpyaCA2TflrLo-25" target="zHHLwWhvpyaCA2TflrLo-26" edge="1">
          <mxGeometry relative="1" as="geometry" />
        </mxCell>
        <mxCell id="zHHLwWhvpyaCA2TflrLo-31" style="edgeStyle=orthogonalEdgeStyle;rounded=0;orthogonalLoop=1;jettySize=auto;html=1;exitX=1;exitY=0.5;exitDx=0;exitDy=0;fontFamily=Times New Roman;fontSize=24;fontColor=default;" parent="1" source="zHHLwWhvpyaCA2TflrLo-25" edge="1">
          <mxGeometry relative="1" as="geometry">
            <mxPoint x="1200" y="960" as="targetPoint" />
            <Array as="points">
              <mxPoint x="1200" y="880" />
            </Array>
          </mxGeometry>
        </mxCell>
        <mxCell id="zHHLwWhvpyaCA2TflrLo-25" value="for (int i = 0; i &amp;lt; n; i ++){" style="shape=hexagon;perimeter=hexagonPerimeter2;whiteSpace=wrap;html=1;fixedSize=1;strokeColor=default;align=center;verticalAlign=middle;fontFamily=Times New Roman;fontSize=24;fontColor=default;fillColor=default;" parent="1" vertex="1">
          <mxGeometry x="660" y="840" width="280" height="80" as="geometry" />
        </mxCell>
        <mxCell id="zHHLwWhvpyaCA2TflrLo-28" style="edgeStyle=orthogonalEdgeStyle;rounded=0;orthogonalLoop=1;jettySize=auto;html=1;exitX=0.5;exitY=1;exitDx=0;exitDy=0;entryX=0;entryY=0.5;entryDx=0;entryDy=0;fontFamily=Times New Roman;fontSize=24;fontColor=default;" parent="1" source="zHHLwWhvpyaCA2TflrLo-26" target="zHHLwWhvpyaCA2TflrLo-25" edge="1">
          <mxGeometry relative="1" as="geometry">
            <Array as="points">
              <mxPoint x="800" y="1120" />
              <mxPoint x="600" y="1120" />
              <mxPoint x="600" y="880" />
            </Array>
          </mxGeometry>
        </mxCell>
        <mxCell id="zHHLwWhvpyaCA2TflrLo-26" value="cout &amp;lt;&amp;lt; a[i] &amp;lt;&amp;lt; &quot; &quot;;" style="shape=parallelogram;perimeter=parallelogramPerimeter;whiteSpace=wrap;html=1;fixedSize=1;fontSize=24;fontFamily=Times New Roman;" parent="1" vertex="1">
          <mxGeometry x="670" y="1000" width="260" height="60" as="geometry" />
        </mxCell>
        <mxCell id="zHHLwWhvpyaCA2TflrLo-30" value="True" style="text;html=1;align=center;verticalAlign=middle;resizable=0;points=[];autosize=1;strokeColor=none;fillColor=none;fontSize=24;fontFamily=Times New Roman;fontColor=default;" parent="1" vertex="1">
          <mxGeometry x="800" y="940" width="70" height="40" as="geometry" />
        </mxCell>
        <mxCell id="zHHLwWhvpyaCA2TflrLo-32" value="False" style="text;html=1;align=center;verticalAlign=middle;resizable=0;points=[];autosize=1;strokeColor=none;fillColor=none;fontSize=24;fontFamily=Times New Roman;fontColor=default;" parent="1" vertex="1">
          <mxGeometry x="1030" y="830" width="70" height="40" as="geometry" />
        </mxCell>
        <mxCell id="zHHLwWhvpyaCA2TflrLo-38" value="" style="edgeStyle=orthogonalEdgeStyle;rounded=0;orthogonalLoop=1;jettySize=auto;html=1;fontFamily=Times New Roman;fontSize=24;fontColor=default;" parent="1" source="zHHLwWhvpyaCA2TflrLo-35" edge="1">
          <mxGeometry relative="1" as="geometry">
            <mxPoint x="1200" y="1080" as="targetPoint" />
          </mxGeometry>
        </mxCell>
        <mxCell id="zHHLwWhvpyaCA2TflrLo-35" value="cout &amp;lt;&amp;lt; endl;" style="shape=parallelogram;perimeter=parallelogramPerimeter;whiteSpace=wrap;html=1;fixedSize=1;fontSize=24;fontFamily=Times New Roman;" parent="1" vertex="1">
          <mxGeometry x="1060" y="960" width="280" height="60" as="geometry" />
        </mxCell>
        <mxCell id="zHHLwWhvpyaCA2TflrLo-41" value="temp = a[n -1];" style="whiteSpace=wrap;html=1;strokeColor=default;align=center;verticalAlign=middle;fontFamily=Times New Roman;fontSize=24;fontColor=default;fillColor=default;" parent="1" vertex="1">
          <mxGeometry x="1125" y="1230" width="160" height="60" as="geometry" />
        </mxCell>
        <mxCell id="FgHF3T86Dq23HYrzLDTu-1" style="edgeStyle=orthogonalEdgeStyle;rounded=0;orthogonalLoop=1;jettySize=auto;html=1;exitX=0.5;exitY=1;exitDx=0;exitDy=0;entryX=0.5;entryY=0;entryDx=0;entryDy=0;" edge="1" parent="1" source="zHHLwWhvpyaCA2TflrLo-43" target="zHHLwWhvpyaCA2TflrLo-41">
          <mxGeometry relative="1" as="geometry" />
        </mxCell>
        <mxCell id="FgHF3T86Dq23HYrzLDTu-9" style="edgeStyle=orthogonalEdgeStyle;rounded=0;orthogonalLoop=1;jettySize=auto;html=1;exitX=1;exitY=0.5;exitDx=0;exitDy=0;" edge="1" parent="1" source="zHHLwWhvpyaCA2TflrLo-43">
          <mxGeometry relative="1" as="geometry">
            <mxPoint x="1810" y="1240" as="targetPoint" />
          </mxGeometry>
        </mxCell>
        <mxCell id="zHHLwWhvpyaCA2TflrLo-43" value="for (int i = 1;&amp;nbsp; i &amp;lt;= n - k + 1; i ++){" style="shape=hexagon;perimeter=hexagonPerimeter2;whiteSpace=wrap;html=1;fixedSize=1;strokeColor=default;align=center;verticalAlign=middle;fontFamily=Times New Roman;fontSize=24;fontColor=default;fillColor=default;" parent="1" vertex="1">
          <mxGeometry x="1020" y="1080" width="370" height="100" as="geometry" />
        </mxCell>
        <mxCell id="FgHF3T86Dq23HYrzLDTu-2" style="edgeStyle=orthogonalEdgeStyle;rounded=0;orthogonalLoop=1;jettySize=auto;html=1;exitX=0.5;exitY=1;exitDx=0;exitDy=0;" edge="1" parent="1" source="zHHLwWhvpyaCA2TflrLo-48" target="zHHLwWhvpyaCA2TflrLo-50">
          <mxGeometry relative="1" as="geometry" />
        </mxCell>
        <mxCell id="FgHF3T86Dq23HYrzLDTu-6" style="edgeStyle=orthogonalEdgeStyle;rounded=0;orthogonalLoop=1;jettySize=auto;html=1;exitX=1;exitY=0.5;exitDx=0;exitDy=0;" edge="1" parent="1" source="zHHLwWhvpyaCA2TflrLo-48">
          <mxGeometry relative="1" as="geometry">
            <mxPoint x="1480" y="1480" as="targetPoint" />
          </mxGeometry>
        </mxCell>
        <mxCell id="zHHLwWhvpyaCA2TflrLo-48" value="for (int j = n - 2;&amp;nbsp; j &amp;gt;= 0; j --){" style="shape=hexagon;perimeter=hexagonPerimeter2;whiteSpace=wrap;html=1;fixedSize=1;strokeColor=default;align=center;verticalAlign=middle;fontFamily=Times New Roman;fontSize=24;fontColor=default;fillColor=default;" parent="1" vertex="1">
          <mxGeometry x="1025" y="1360" width="360" height="90" as="geometry" />
        </mxCell>
        <mxCell id="FgHF3T86Dq23HYrzLDTu-3" style="edgeStyle=orthogonalEdgeStyle;rounded=0;orthogonalLoop=1;jettySize=auto;html=1;exitX=0.5;exitY=1;exitDx=0;exitDy=0;entryX=0;entryY=0.5;entryDx=0;entryDy=0;" edge="1" parent="1" source="zHHLwWhvpyaCA2TflrLo-50" target="zHHLwWhvpyaCA2TflrLo-48">
          <mxGeometry relative="1" as="geometry">
            <Array as="points">
              <mxPoint x="1205" y="1600" />
              <mxPoint x="960" y="1600" />
              <mxPoint x="960" y="1405" />
            </Array>
          </mxGeometry>
        </mxCell>
        <mxCell id="zHHLwWhvpyaCA2TflrLo-50" value="a[j + 1] = a[j];" style="whiteSpace=wrap;html=1;strokeColor=default;align=center;verticalAlign=middle;fontFamily=Times New Roman;fontSize=24;fontColor=default;fillColor=default;" parent="1" vertex="1">
          <mxGeometry x="1125" y="1510" width="160" height="60" as="geometry" />
        </mxCell>
        <mxCell id="zHHLwWhvpyaCA2TflrLo-55" style="edgeStyle=orthogonalEdgeStyle;rounded=0;orthogonalLoop=1;jettySize=auto;html=1;exitX=0.5;exitY=1;exitDx=0;exitDy=0;entryX=0.5;entryY=0;entryDx=0;entryDy=0;fontFamily=Times New Roman;fontSize=24;fontColor=default;" parent="1" source="zHHLwWhvpyaCA2TflrLo-41" target="zHHLwWhvpyaCA2TflrLo-48" edge="1">
          <mxGeometry relative="1" as="geometry" />
        </mxCell>
        <mxCell id="zHHLwWhvpyaCA2TflrLo-59" value="False" style="text;html=1;align=center;verticalAlign=middle;resizable=0;points=[];autosize=1;strokeColor=none;fillColor=none;fontSize=24;fontFamily=Times New Roman;fontColor=default;" parent="1" vertex="1">
          <mxGeometry x="1390" y="1360" width="70" height="40" as="geometry" />
        </mxCell>
        <mxCell id="zHHLwWhvpyaCA2TflrLo-91" value="}" style="text;html=1;align=center;verticalAlign=middle;resizable=0;points=[];autosize=1;strokeColor=none;fillColor=none;fontSize=24;fontFamily=Times New Roman;fontColor=default;" parent="1" vertex="1">
          <mxGeometry x="800" y="790" width="40" height="40" as="geometry" />
        </mxCell>
        <mxCell id="zHHLwWhvpyaCA2TflrLo-92" value="}" style="text;html=1;align=center;verticalAlign=middle;resizable=0;points=[];autosize=1;strokeColor=none;fillColor=none;fontSize=24;fontFamily=Times New Roman;fontColor=default;" parent="1" vertex="1">
          <mxGeometry x="1201" y="900" width="40" height="40" as="geometry" />
        </mxCell>
        <mxCell id="zHHLwWhvpyaCA2TflrLo-93" value="True" style="text;html=1;align=center;verticalAlign=middle;resizable=0;points=[];autosize=1;strokeColor=none;fillColor=none;fontSize=24;fontFamily=Times New Roman;fontColor=default;" parent="1" vertex="1">
          <mxGeometry x="1201" y="1460" width="70" height="40" as="geometry" />
        </mxCell>
        <mxCell id="FgHF3T86Dq23HYrzLDTu-7" style="edgeStyle=orthogonalEdgeStyle;rounded=0;orthogonalLoop=1;jettySize=auto;html=1;exitX=0.5;exitY=1;exitDx=0;exitDy=0;entryX=0;entryY=0.5;entryDx=0;entryDy=0;" edge="1" parent="1" source="FgHF3T86Dq23HYrzLDTu-5" target="zHHLwWhvpyaCA2TflrLo-43">
          <mxGeometry relative="1" as="geometry">
            <Array as="points">
              <mxPoint x="1480" y="1640" />
              <mxPoint x="920" y="1640" />
              <mxPoint x="920" y="1130" />
            </Array>
          </mxGeometry>
        </mxCell>
        <mxCell id="FgHF3T86Dq23HYrzLDTu-5" value="a[0] = temp;" style="whiteSpace=wrap;html=1;strokeColor=default;align=center;verticalAlign=middle;fontFamily=Times New Roman;fontSize=24;fontColor=default;fillColor=default;" vertex="1" parent="1">
          <mxGeometry x="1400" y="1480" width="160" height="60" as="geometry" />
        </mxCell>
        <mxCell id="FgHF3T86Dq23HYrzLDTu-8" value="True" style="text;html=1;align=center;verticalAlign=middle;resizable=0;points=[];autosize=1;strokeColor=none;fillColor=none;fontSize=24;fontFamily=Times New Roman;fontColor=default;" vertex="1" parent="1">
          <mxGeometry x="1201" y="1180" width="70" height="40" as="geometry" />
        </mxCell>
        <mxCell id="FgHF3T86Dq23HYrzLDTu-11" style="edgeStyle=orthogonalEdgeStyle;rounded=0;orthogonalLoop=1;jettySize=auto;html=1;exitX=0.5;exitY=1;exitDx=0;exitDy=0;" edge="1" parent="1" source="FgHF3T86Dq23HYrzLDTu-10">
          <mxGeometry relative="1" as="geometry">
            <mxPoint x="1810" y="1370" as="targetPoint" />
          </mxGeometry>
        </mxCell>
        <mxCell id="FgHF3T86Dq23HYrzLDTu-15" style="edgeStyle=orthogonalEdgeStyle;rounded=0;orthogonalLoop=1;jettySize=auto;html=1;exitX=1;exitY=0.5;exitDx=0;exitDy=0;entryX=0.5;entryY=0;entryDx=0;entryDy=0;" edge="1" parent="1" source="FgHF3T86Dq23HYrzLDTu-10" target="FgHF3T86Dq23HYrzLDTu-16">
          <mxGeometry relative="1" as="geometry">
            <mxPoint x="2160" y="1360" as="targetPoint" />
            <Array as="points">
              <mxPoint x="2300" y="1280" />
            </Array>
          </mxGeometry>
        </mxCell>
        <mxCell id="FgHF3T86Dq23HYrzLDTu-10" value="for (int i = 0; i &amp;lt; n; i ++){" style="shape=hexagon;perimeter=hexagonPerimeter2;whiteSpace=wrap;html=1;fixedSize=1;strokeColor=default;align=center;verticalAlign=middle;fontFamily=Times New Roman;fontSize=24;fontColor=default;fillColor=default;" vertex="1" parent="1">
          <mxGeometry x="1670" y="1240" width="280" height="80" as="geometry" />
        </mxCell>
        <mxCell id="FgHF3T86Dq23HYrzLDTu-14" style="edgeStyle=orthogonalEdgeStyle;rounded=0;orthogonalLoop=1;jettySize=auto;html=1;exitX=0.5;exitY=1;exitDx=0;exitDy=0;entryX=0;entryY=0.5;entryDx=0;entryDy=0;" edge="1" parent="1" source="FgHF3T86Dq23HYrzLDTu-12" target="FgHF3T86Dq23HYrzLDTu-10">
          <mxGeometry relative="1" as="geometry">
            <Array as="points">
              <mxPoint x="1810" y="1480" />
              <mxPoint x="1600" y="1480" />
              <mxPoint x="1600" y="1280" />
            </Array>
          </mxGeometry>
        </mxCell>
        <mxCell id="FgHF3T86Dq23HYrzLDTu-12" value="cout &amp;lt;&amp;lt; a[i] &amp;lt;&amp;lt; &quot; &quot;;" style="shape=parallelogram;perimeter=parallelogramPerimeter;whiteSpace=wrap;html=1;fixedSize=1;fontSize=24;fontFamily=Times New Roman;" vertex="1" parent="1">
          <mxGeometry x="1680" y="1370" width="260" height="60" as="geometry" />
        </mxCell>
        <mxCell id="FgHF3T86Dq23HYrzLDTu-13" value="True" style="text;html=1;align=center;verticalAlign=middle;resizable=0;points=[];autosize=1;strokeColor=none;fillColor=none;fontSize=24;fontFamily=Times New Roman;fontColor=default;" vertex="1" parent="1">
          <mxGeometry x="1810" y="1320" width="70" height="40" as="geometry" />
        </mxCell>
        <mxCell id="FgHF3T86Dq23HYrzLDTu-64" style="edgeStyle=orthogonalEdgeStyle;rounded=0;orthogonalLoop=1;jettySize=auto;html=1;exitX=0.5;exitY=1;exitDx=0;exitDy=0;entryX=0.5;entryY=0;entryDx=0;entryDy=0;" edge="1" parent="1" source="FgHF3T86Dq23HYrzLDTu-16" target="FgHF3T86Dq23HYrzLDTu-18">
          <mxGeometry relative="1" as="geometry" />
        </mxCell>
        <mxCell id="FgHF3T86Dq23HYrzLDTu-66" style="edgeStyle=orthogonalEdgeStyle;rounded=0;orthogonalLoop=1;jettySize=auto;html=1;exitX=1;exitY=0.5;exitDx=0;exitDy=0;entryX=0.5;entryY=0;entryDx=0;entryDy=0;" edge="1" parent="1" source="FgHF3T86Dq23HYrzLDTu-16" target="FgHF3T86Dq23HYrzLDTu-28">
          <mxGeometry relative="1" as="geometry" />
        </mxCell>
        <mxCell id="FgHF3T86Dq23HYrzLDTu-16" value="for (int i = 1; i &amp;lt; n; i ++){" style="shape=hexagon;perimeter=hexagonPerimeter2;whiteSpace=wrap;html=1;fixedSize=1;strokeColor=default;align=center;verticalAlign=middle;fontFamily=Times New Roman;fontSize=24;fontColor=default;fillColor=default;" vertex="1" parent="1">
          <mxGeometry x="2160" y="1365" width="280" height="80" as="geometry" />
        </mxCell>
        <mxCell id="FgHF3T86Dq23HYrzLDTu-19" style="edgeStyle=orthogonalEdgeStyle;rounded=0;orthogonalLoop=1;jettySize=auto;html=1;exitX=0.5;exitY=1;exitDx=0;exitDy=0;" edge="1" parent="1" source="FgHF3T86Dq23HYrzLDTu-18" target="FgHF3T86Dq23HYrzLDTu-20">
          <mxGeometry relative="1" as="geometry">
            <mxPoint x="2160" y="1600" as="targetPoint" />
          </mxGeometry>
        </mxCell>
        <mxCell id="FgHF3T86Dq23HYrzLDTu-18" value="j = i;" style="whiteSpace=wrap;html=1;strokeColor=default;align=center;verticalAlign=middle;fontFamily=Times New Roman;fontSize=24;fontColor=default;fillColor=default;" vertex="1" parent="1">
          <mxGeometry x="2210" y="1500" width="180" height="60" as="geometry" />
        </mxCell>
        <mxCell id="FgHF3T86Dq23HYrzLDTu-22" style="edgeStyle=orthogonalEdgeStyle;rounded=0;orthogonalLoop=1;jettySize=auto;html=1;exitX=0.5;exitY=1;exitDx=0;exitDy=0;entryX=0.5;entryY=0;entryDx=0;entryDy=0;" edge="1" parent="1" source="FgHF3T86Dq23HYrzLDTu-20" target="FgHF3T86Dq23HYrzLDTu-23">
          <mxGeometry relative="1" as="geometry">
            <mxPoint x="2160.2857142857147" y="1920" as="targetPoint" />
          </mxGeometry>
        </mxCell>
        <mxCell id="FgHF3T86Dq23HYrzLDTu-65" style="edgeStyle=orthogonalEdgeStyle;rounded=0;orthogonalLoop=1;jettySize=auto;html=1;exitX=1;exitY=0.5;exitDx=0;exitDy=0;entryX=0;entryY=0.5;entryDx=0;entryDy=0;" edge="1" parent="1" source="FgHF3T86Dq23HYrzLDTu-20" target="FgHF3T86Dq23HYrzLDTu-16">
          <mxGeometry relative="1" as="geometry">
            <Array as="points">
              <mxPoint x="2600" y="1740" />
              <mxPoint x="2600" y="2200" />
              <mxPoint x="2000" y="2200" />
              <mxPoint x="2000" y="1405" />
            </Array>
          </mxGeometry>
        </mxCell>
        <mxCell id="FgHF3T86Dq23HYrzLDTu-20" value="while (( j &amp;gt; 0) &amp;amp;&amp;amp; (a[j -1] &amp;gt; a[j])){" style="rhombus;whiteSpace=wrap;html=1;fontFamily=Times New Roman;fontSize=24;" vertex="1" parent="1">
          <mxGeometry x="2080" y="1600" width="440" height="280" as="geometry" />
        </mxCell>
        <mxCell id="FgHF3T86Dq23HYrzLDTu-21" style="edgeStyle=orthogonalEdgeStyle;rounded=0;orthogonalLoop=1;jettySize=auto;html=1;exitX=0.5;exitY=1;exitDx=0;exitDy=0;" edge="1" parent="1" source="FgHF3T86Dq23HYrzLDTu-20" target="FgHF3T86Dq23HYrzLDTu-20">
          <mxGeometry relative="1" as="geometry" />
        </mxCell>
        <mxCell id="FgHF3T86Dq23HYrzLDTu-25" style="edgeStyle=orthogonalEdgeStyle;rounded=0;orthogonalLoop=1;jettySize=auto;html=1;exitX=0.5;exitY=1;exitDx=0;exitDy=0;entryX=0;entryY=0.5;entryDx=0;entryDy=0;" edge="1" parent="1">
          <mxGeometry relative="1" as="geometry">
            <mxPoint x="2300" y="2099.91" as="sourcePoint" />
            <mxPoint x="2080" y="1739.91" as="targetPoint" />
            <Array as="points">
              <mxPoint x="2300" y="2160" />
              <mxPoint x="2040" y="2160" />
              <mxPoint x="2040" y="1740" />
            </Array>
          </mxGeometry>
        </mxCell>
        <mxCell id="FgHF3T86Dq23HYrzLDTu-23" value="int tmp = a[i];&lt;br&gt;a[j] = a[j - 1];&lt;br&gt;a[j - 1] = tmp;&lt;br&gt;j--;" style="whiteSpace=wrap;html=1;strokeColor=default;align=center;verticalAlign=middle;fontFamily=Times New Roman;fontSize=24;fontColor=default;fillColor=default;" vertex="1" parent="1">
          <mxGeometry x="2150" y="1960" width="300" height="140" as="geometry" />
        </mxCell>
        <mxCell id="FgHF3T86Dq23HYrzLDTu-26" value="True" style="text;html=1;align=center;verticalAlign=middle;resizable=0;points=[];autosize=1;strokeColor=none;fillColor=none;fontSize=24;fontFamily=Times New Roman;fontColor=default;" vertex="1" parent="1">
          <mxGeometry x="2300" y="1890" width="70" height="40" as="geometry" />
        </mxCell>
        <mxCell id="FgHF3T86Dq23HYrzLDTu-28" value="cout &amp;lt;&amp;lt; endl;" style="shape=parallelogram;perimeter=parallelogramPerimeter;whiteSpace=wrap;html=1;fixedSize=1;fontSize=24;fontFamily=Times New Roman;" vertex="1" parent="1">
          <mxGeometry x="2790" y="1640" width="260" height="60" as="geometry" />
        </mxCell>
        <mxCell id="FgHF3T86Dq23HYrzLDTu-35" style="edgeStyle=orthogonalEdgeStyle;rounded=0;orthogonalLoop=1;jettySize=auto;html=1;exitX=1;exitY=0.5;exitDx=0;exitDy=0;entryX=0.5;entryY=0;entryDx=0;entryDy=0;" edge="1" parent="1" source="FgHF3T86Dq23HYrzLDTu-30" target="FgHF3T86Dq23HYrzLDTu-36">
          <mxGeometry relative="1" as="geometry">
            <mxPoint x="2960" y="2120" as="targetPoint" />
            <Array as="points">
              <mxPoint x="3200" y="1800" />
            </Array>
          </mxGeometry>
        </mxCell>
        <mxCell id="FgHF3T86Dq23HYrzLDTu-32" value="True" style="text;html=1;align=center;verticalAlign=middle;resizable=0;points=[];autosize=1;strokeColor=none;fillColor=none;fontSize=24;fontFamily=Times New Roman;fontColor=default;" vertex="1" parent="1">
          <mxGeometry x="2925" y="1850" width="70" height="40" as="geometry" />
        </mxCell>
        <mxCell id="FgHF3T86Dq23HYrzLDTu-34" style="edgeStyle=orthogonalEdgeStyle;rounded=0;orthogonalLoop=1;jettySize=auto;html=1;exitX=0.5;exitY=1;exitDx=0;exitDy=0;entryX=0;entryY=0.5;entryDx=0;entryDy=0;" edge="1" parent="1" source="FgHF3T86Dq23HYrzLDTu-33" target="FgHF3T86Dq23HYrzLDTu-30">
          <mxGeometry relative="1" as="geometry">
            <Array as="points">
              <mxPoint x="2920" y="2080" />
              <mxPoint x="2620" y="2080" />
              <mxPoint x="2620" y="1800" />
            </Array>
          </mxGeometry>
        </mxCell>
        <mxCell id="FgHF3T86Dq23HYrzLDTu-33" value="cout &amp;lt;&amp;lt; a[i] &amp;lt;&amp;lt; &quot; &quot;;" style="shape=parallelogram;perimeter=parallelogramPerimeter;whiteSpace=wrap;html=1;fixedSize=1;fontSize=24;fontFamily=Times New Roman;" vertex="1" parent="1">
          <mxGeometry x="2790" y="1910" width="260" height="60" as="geometry" />
        </mxCell>
        <mxCell id="FgHF3T86Dq23HYrzLDTu-37" style="edgeStyle=orthogonalEdgeStyle;rounded=0;orthogonalLoop=1;jettySize=auto;html=1;exitX=0.5;exitY=1;exitDx=0;exitDy=0;entryX=0.5;entryY=0;entryDx=0;entryDy=0;" edge="1" parent="1" source="FgHF3T86Dq23HYrzLDTu-36" target="FgHF3T86Dq23HYrzLDTu-38">
          <mxGeometry relative="1" as="geometry">
            <mxPoint x="2960" y="2250" as="targetPoint" />
          </mxGeometry>
        </mxCell>
        <mxCell id="FgHF3T86Dq23HYrzLDTu-56" style="edgeStyle=orthogonalEdgeStyle;rounded=0;orthogonalLoop=1;jettySize=auto;html=1;exitX=1;exitY=0.5;exitDx=0;exitDy=0;" edge="1" parent="1" source="FgHF3T86Dq23HYrzLDTu-36">
          <mxGeometry relative="1" as="geometry">
            <mxPoint x="3720" y="2280" as="targetPoint" />
          </mxGeometry>
        </mxCell>
        <mxCell id="FgHF3T86Dq23HYrzLDTu-36" value="for (int i = 0; i &amp;lt; n; i ++){" style="shape=hexagon;perimeter=hexagonPerimeter2;whiteSpace=wrap;html=1;fixedSize=1;strokeColor=default;align=center;verticalAlign=middle;fontFamily=Times New Roman;fontSize=24;fontColor=default;fillColor=default;" vertex="1" parent="1">
          <mxGeometry x="3060" y="2120" width="280" height="80" as="geometry" />
        </mxCell>
        <mxCell id="FgHF3T86Dq23HYrzLDTu-39" style="edgeStyle=orthogonalEdgeStyle;rounded=0;orthogonalLoop=1;jettySize=auto;html=1;exitX=0;exitY=0.5;exitDx=0;exitDy=0;entryX=0.5;entryY=0;entryDx=0;entryDy=0;" edge="1" parent="1" source="FgHF3T86Dq23HYrzLDTu-38" target="FgHF3T86Dq23HYrzLDTu-42">
          <mxGeometry relative="1" as="geometry">
            <mxPoint x="2720" y="2440" as="targetPoint" />
            <Array as="points">
              <mxPoint x="2960" y="2335" />
              <mxPoint x="2960" y="2450" />
            </Array>
          </mxGeometry>
        </mxCell>
        <mxCell id="FgHF3T86Dq23HYrzLDTu-38" value="if (a[i] % 2 != 0){" style="rhombus;whiteSpace=wrap;html=1;fontFamily=Times New Roman;fontSize=24;" vertex="1" parent="1">
          <mxGeometry x="3050" y="2250" width="300" height="170" as="geometry" />
        </mxCell>
        <mxCell id="FgHF3T86Dq23HYrzLDTu-40" value="True" style="text;html=1;align=center;verticalAlign=middle;resizable=0;points=[];autosize=1;strokeColor=none;fillColor=none;fontSize=24;fontFamily=Times New Roman;fontColor=default;" vertex="1" parent="1">
          <mxGeometry x="2970" y="2290" width="70" height="40" as="geometry" />
        </mxCell>
        <mxCell id="FgHF3T86Dq23HYrzLDTu-42" value="cout &amp;lt;&amp;lt; a[i] &amp;lt;&amp;lt; &quot; &quot;;" style="shape=parallelogram;perimeter=parallelogramPerimeter;whiteSpace=wrap;html=1;fixedSize=1;fontSize=24;fontFamily=Times New Roman;" vertex="1" parent="1">
          <mxGeometry x="2830" y="2450" width="260" height="60" as="geometry" />
        </mxCell>
        <mxCell id="FgHF3T86Dq23HYrzLDTu-43" value="" style="endArrow=none;html=1;rounded=0;" edge="1" parent="1">
          <mxGeometry width="50" height="50" relative="1" as="geometry">
            <mxPoint x="2959" y="2560" as="sourcePoint" />
            <mxPoint x="2959.33" y="2510" as="targetPoint" />
          </mxGeometry>
        </mxCell>
        <mxCell id="FgHF3T86Dq23HYrzLDTu-45" value="" style="endArrow=none;html=1;rounded=0;entryX=1;entryY=0.5;entryDx=0;entryDy=0;" edge="1" parent="1" target="FgHF3T86Dq23HYrzLDTu-38">
          <mxGeometry width="50" height="50" relative="1" as="geometry">
            <mxPoint x="3480" y="2335" as="sourcePoint" />
            <mxPoint x="3650" y="2470" as="targetPoint" />
          </mxGeometry>
        </mxCell>
        <mxCell id="FgHF3T86Dq23HYrzLDTu-46" value="" style="endArrow=none;html=1;rounded=0;" edge="1" parent="1">
          <mxGeometry width="50" height="50" relative="1" as="geometry">
            <mxPoint x="3480.59" y="2560" as="sourcePoint" />
            <mxPoint x="2960" y="2560" as="targetPoint" />
          </mxGeometry>
        </mxCell>
        <mxCell id="FgHF3T86Dq23HYrzLDTu-47" value="" style="endArrow=none;html=1;rounded=0;" edge="1" parent="1">
          <mxGeometry width="50" height="50" relative="1" as="geometry">
            <mxPoint x="3200" y="2720" as="sourcePoint" />
            <mxPoint x="3199.33" y="2560" as="targetPoint" />
          </mxGeometry>
        </mxCell>
        <mxCell id="FgHF3T86Dq23HYrzLDTu-49" value="" style="endArrow=none;html=1;rounded=0;" edge="1" parent="1">
          <mxGeometry width="50" height="50" relative="1" as="geometry">
            <mxPoint x="3200.59" y="2720" as="sourcePoint" />
            <mxPoint x="2800" y="2720" as="targetPoint" />
          </mxGeometry>
        </mxCell>
        <mxCell id="FgHF3T86Dq23HYrzLDTu-50" value="" style="endArrow=none;html=1;rounded=0;" edge="1" parent="1">
          <mxGeometry width="50" height="50" relative="1" as="geometry">
            <mxPoint x="2800" y="2720" as="sourcePoint" />
            <mxPoint x="2800" y="2160" as="targetPoint" />
          </mxGeometry>
        </mxCell>
        <mxCell id="FgHF3T86Dq23HYrzLDTu-52" value="True" style="text;html=1;align=center;verticalAlign=middle;resizable=0;points=[];autosize=1;strokeColor=none;fillColor=none;fontSize=24;fontFamily=Times New Roman;fontColor=default;" vertex="1" parent="1">
          <mxGeometry x="3200" y="2210" width="70" height="40" as="geometry" />
        </mxCell>
        <mxCell id="FgHF3T86Dq23HYrzLDTu-53" value="" style="endArrow=none;html=1;rounded=0;" edge="1" parent="1">
          <mxGeometry width="50" height="50" relative="1" as="geometry">
            <mxPoint x="3480" y="2560" as="sourcePoint" />
            <mxPoint x="3480" y="2334.33" as="targetPoint" />
          </mxGeometry>
        </mxCell>
        <mxCell id="FgHF3T86Dq23HYrzLDTu-54" value="False" style="text;html=1;align=center;verticalAlign=middle;resizable=0;points=[];autosize=1;strokeColor=none;fillColor=none;fontSize=24;fontFamily=Times New Roman;fontColor=default;" vertex="1" parent="1">
          <mxGeometry x="3380" y="2290" width="70" height="40" as="geometry" />
        </mxCell>
        <mxCell id="FgHF3T86Dq23HYrzLDTu-55" value="" style="endArrow=classic;html=1;rounded=0;entryX=0;entryY=0.5;entryDx=0;entryDy=0;" edge="1" parent="1" target="FgHF3T86Dq23HYrzLDTu-36">
          <mxGeometry width="50" height="50" relative="1" as="geometry">
            <mxPoint x="2800" y="2160" as="sourcePoint" />
            <mxPoint x="2850" y="2110" as="targetPoint" />
          </mxGeometry>
        </mxCell>
        <mxCell id="FgHF3T86Dq23HYrzLDTu-57" value="return 0;" style="whiteSpace=wrap;html=1;strokeColor=default;align=center;verticalAlign=middle;fontFamily=Times New Roman;fontSize=24;fontColor=default;fillColor=default;" vertex="1" parent="1">
          <mxGeometry x="3642" y="2280" width="160" height="60" as="geometry" />
        </mxCell>
        <mxCell id="FgHF3T86Dq23HYrzLDTu-58" value="&lt;font face=&quot;Times New Roman&quot; style=&quot;font-size: 24px;&quot;&gt;}&lt;/font&gt;" style="text;html=1;align=center;verticalAlign=middle;resizable=0;points=[];autosize=1;strokeColor=none;fillColor=none;" vertex="1" parent="1">
          <mxGeometry x="3802" y="2290" width="40" height="40" as="geometry" />
        </mxCell>
        <mxCell id="FgHF3T86Dq23HYrzLDTu-59" value="&lt;font face=&quot;Times New Roman&quot; style=&quot;font-size: 24px;&quot;&gt;}&lt;/font&gt;" style="text;html=1;align=center;verticalAlign=middle;resizable=0;points=[];autosize=1;strokeColor=none;fillColor=none;" vertex="1" parent="1">
          <mxGeometry x="3180" y="2520" width="40" height="40" as="geometry" />
        </mxCell>
        <mxCell id="FgHF3T86Dq23HYrzLDTu-60" value="&lt;font face=&quot;Times New Roman&quot; style=&quot;font-size: 24px;&quot;&gt;}&lt;/font&gt;" style="text;html=1;align=center;verticalAlign=middle;resizable=0;points=[];autosize=1;strokeColor=none;fillColor=none;" vertex="1" parent="1">
          <mxGeometry x="3722" y="2230" width="40" height="40" as="geometry" />
        </mxCell>
        <mxCell id="FgHF3T86Dq23HYrzLDTu-61" value="&lt;font face=&quot;Times New Roman&quot; style=&quot;font-size: 24px;&quot;&gt;}&lt;/font&gt;" style="text;html=1;align=center;verticalAlign=middle;resizable=0;points=[];autosize=1;strokeColor=none;fillColor=none;" vertex="1" parent="1">
          <mxGeometry x="3200" y="2070" width="40" height="40" as="geometry" />
        </mxCell>
        <mxCell id="FgHF3T86Dq23HYrzLDTu-62" value="&lt;font face=&quot;Times New Roman&quot; style=&quot;font-size: 24px;&quot;&gt;}&lt;/font&gt;" style="text;html=1;align=center;verticalAlign=middle;resizable=0;points=[];autosize=1;strokeColor=none;fillColor=none;" vertex="1" parent="1">
          <mxGeometry x="2300" y="2110" width="40" height="40" as="geometry" />
        </mxCell>
        <mxCell id="FgHF3T86Dq23HYrzLDTu-67" value="" style="edgeStyle=orthogonalEdgeStyle;rounded=0;orthogonalLoop=1;jettySize=auto;html=1;exitX=0.5;exitY=1;exitDx=0;exitDy=0;" edge="1" parent="1" source="FgHF3T86Dq23HYrzLDTu-28" target="FgHF3T86Dq23HYrzLDTu-30">
          <mxGeometry relative="1" as="geometry">
            <mxPoint x="2640" y="2000" as="targetPoint" />
            <mxPoint x="2920" y="1940" as="sourcePoint" />
          </mxGeometry>
        </mxCell>
        <mxCell id="FgHF3T86Dq23HYrzLDTu-68" style="edgeStyle=orthogonalEdgeStyle;rounded=0;orthogonalLoop=1;jettySize=auto;html=1;exitX=0.5;exitY=1;exitDx=0;exitDy=0;entryX=0.5;entryY=0;entryDx=0;entryDy=0;" edge="1" parent="1" source="FgHF3T86Dq23HYrzLDTu-30" target="FgHF3T86Dq23HYrzLDTu-33">
          <mxGeometry relative="1" as="geometry" />
        </mxCell>
        <mxCell id="FgHF3T86Dq23HYrzLDTu-30" value="for (int i = 0; i &amp;lt; n; i ++){" style="shape=hexagon;perimeter=hexagonPerimeter2;whiteSpace=wrap;html=1;fixedSize=1;strokeColor=default;align=center;verticalAlign=middle;fontFamily=Times New Roman;fontSize=24;fontColor=default;fillColor=default;" vertex="1" parent="1">
          <mxGeometry x="2780" y="1760" width="280" height="80" as="geometry" />
        </mxCell>
        <mxCell id="FgHF3T86Dq23HYrzLDTu-70" value="}" style="text;html=1;align=center;verticalAlign=middle;resizable=0;points=[];autosize=1;strokeColor=none;fillColor=none;fontSize=24;fontFamily=Times New Roman;fontColor=default;" vertex="1" parent="1">
          <mxGeometry x="1810" y="1180" width="40" height="40" as="geometry" />
        </mxCell>
        <mxCell id="FgHF3T86Dq23HYrzLDTu-71" value="}" style="text;html=1;align=center;verticalAlign=middle;resizable=0;points=[];autosize=1;strokeColor=none;fillColor=none;fontSize=24;fontFamily=Times New Roman;fontColor=default;" vertex="1" parent="1">
          <mxGeometry x="2310" y="1310" width="40" height="40" as="geometry" />
        </mxCell>
        <mxCell id="FgHF3T86Dq23HYrzLDTu-73" value="False" style="text;html=1;align=center;verticalAlign=middle;resizable=0;points=[];autosize=1;strokeColor=none;fillColor=none;fontSize=24;fontFamily=Times New Roman;fontColor=default;" vertex="1" parent="1">
          <mxGeometry x="2530" y="1690" width="70" height="40" as="geometry" />
        </mxCell>
        <mxCell id="FgHF3T86Dq23HYrzLDTu-74" value="}" style="text;html=1;align=center;verticalAlign=middle;resizable=0;points=[];autosize=1;strokeColor=none;fillColor=none;fontSize=24;fontFamily=Times New Roman;fontColor=default;" vertex="1" parent="1">
          <mxGeometry x="2930" y="1590" width="40" height="40" as="geometry" />
        </mxCell>
        <mxCell id="FgHF3T86Dq23HYrzLDTu-75" value="False" style="text;html=1;align=center;verticalAlign=middle;resizable=0;points=[];autosize=1;strokeColor=none;fillColor=none;fontSize=24;fontFamily=Times New Roman;fontColor=default;" vertex="1" parent="1">
          <mxGeometry x="3090" y="1754" width="70" height="40" as="geometry" />
        </mxCell>
        <mxCell id="FgHF3T86Dq23HYrzLDTu-76" value="False" style="text;html=1;align=center;verticalAlign=middle;resizable=0;points=[];autosize=1;strokeColor=none;fillColor=none;fontSize=24;fontFamily=Times New Roman;fontColor=default;" vertex="1" parent="1">
          <mxGeometry x="1550" y="1080" width="70" height="40" as="geometry" />
        </mxCell>
        <mxCell id="FgHF3T86Dq23HYrzLDTu-77" value="False" style="text;html=1;align=center;verticalAlign=middle;resizable=0;points=[];autosize=1;strokeColor=none;fillColor=none;fontSize=24;fontFamily=Times New Roman;fontColor=default;" vertex="1" parent="1">
          <mxGeometry x="2650" y="1350" width="70" height="40" as="geometry" />
        </mxCell>
        <mxCell id="FgHF3T86Dq23HYrzLDTu-78" value="False" style="text;html=1;align=center;verticalAlign=middle;resizable=0;points=[];autosize=1;strokeColor=none;fillColor=none;fontSize=24;fontFamily=Times New Roman;fontColor=default;" vertex="1" parent="1">
          <mxGeometry x="3490" y="2110" width="70" height="40" as="geometry" />
        </mxCell>
        <mxCell id="FgHF3T86Dq23HYrzLDTu-79" value="False" style="text;html=1;align=center;verticalAlign=middle;resizable=0;points=[];autosize=1;strokeColor=none;fillColor=none;fontSize=24;fontFamily=Times New Roman;fontColor=default;" vertex="1" parent="1">
          <mxGeometry x="2070" y="1230" width="70" height="40" as="geometry" />
        </mxCell>
      </root>
    </mxGraphModel>
  </diagram>
</mxfile>
